<?xml version="1.0" encoding="iso-8859-1"?>
<!-- Uploaded to: SVG Repo, www.svgrepo.com, Generator: SVG Repo Mixer Tools -->
<svg fill="#000000" height="800px" width="800px" version="1.1" id="Capa_1" xmlns="http://www.w3.org/2000/svg" xmlns:xlink="http://www.w3.org/1999/xlink" 
	 viewBox="0 0 472.971 472.971" xml:space="preserve">
<g>
	<g>
		<path d="M242.806,173.24c29.68,0,53.826-24.147,53.826-53.827c0-29.191-33.205-82.085-53.923-111.245
			c-20.697,28.633-53.73,80.771-53.73,111.245C188.979,149.093,213.126,173.24,242.806,173.24z"/>
		<path d="M398.702,325.156c-35.905-10.884-81.429-17.726-130.596-19.785c-7.744-42.963-3.174-71.833-1.7-80.172
			c0.655-3.707,1.869-6.332,1.869-9.79c0-14.682-11.901-26.583-26.583-26.583s-26.589,11.902-26.589,26.583
			c0,3.459,1.208,6.084,1.864,9.79c1.47,8.315,6.02,37.044-1.633,79.807c-53.159,1.476-102.624,8.498-141.065,20.15
			C25.682,339.884,0,360.493,0,384.757s25.682,44.873,74.269,59.601c43.498,13.185,101.107,20.446,162.216,20.446
			s118.719-7.261,162.217-20.446c48.587-14.728,74.269-35.338,74.269-59.601C472.97,360.493,447.289,339.884,398.702,325.156z
			 M391.739,421.389c-41.302,12.52-96.438,19.415-155.254,19.415c-58.815,0-113.952-6.895-155.254-19.415
			C38.989,408.585,24,393.652,24,384.757s14.989-23.828,57.231-36.633c35.032-10.619,80.018-17.189,128.758-18.94
			c-1.686,6.422-3.651,13.083-5.92,19.959c-23.788,1.074-45.666,3.327-63.528,6.604c-13.076,2.399-23.517,5.269-31.032,8.529
			c-11.709,5.08-17.646,11.97-17.646,20.48s5.937,15.401,17.646,20.48c7.516,3.26,17.956,6.13,31.032,8.529
			c25.742,4.723,59.814,7.324,95.943,7.324s70.202-2.601,95.943-7.324c13.076-2.399,23.517-5.269,31.032-8.528
			c11.709-5.08,17.647-11.97,17.647-20.48s-5.938-15.401-17.647-20.48c-7.516-3.26-17.956-6.13-31.032-8.529
			c-15.174-2.784-33.257-4.824-52.936-6.036c-2.295-6.916-4.28-13.613-5.986-20.071c44.677,2.268,85.738,8.633,118.233,18.483
			c42.243,12.805,57.232,27.737,57.232,36.633S433.982,408.585,391.739,421.389z M194.972,373.674
			c-2.877,6.988-6.072,14.157-9.618,21.495c-11.653-0.912-22.586-2.133-32.374-3.645c-14.88-2.297-24.201-4.767-29.93-6.768
			c5.729-2.001,15.05-4.471,29.93-6.768C165.418,376.068,179.701,374.615,194.972,373.674z M288.714,374.433
			c11.24,0.902,21.797,2.093,31.276,3.556c14.88,2.297,24.2,4.767,29.93,6.768c-5.73,2-15.05,4.47-29.93,6.768
			c-6.939,1.071-14.46,1.996-22.397,2.77C294.343,387.525,291.394,380.902,288.714,374.433z"/>
	</g>
</g>
</svg>